<svg xmlns="http://www.w3.org/2000/svg" xml:space="preserve" width="482.1" height="194.6" fill="currentColor"><path d="M3.8 161.6C1.3 159 0 155.4 0 151.7V57.4c0-4.3 2-8 4.7-10.8 2.8-2.7 6.5-4.7 10.8-4.8h134.1v10H15.5c-1 0-2.5.6-3.7 1.8-1.2 1.2-1.9 2.8-1.8 3.7v94.3c0 1.6.4 2.3.9 2.8s1.2.9 2.8.9h136v10H13.6c-3.7.1-7.2-1.2-9.8-3.7z" opacity=".8"/><path d="M147.7 150v-8h8v8h-8z"/><path d="M147.7 136v-8h8v8h-8z"/><path d="M147.7 122v-8h8v8h-8z"/><path d="M147.7 108v-8h8v8h-8z"/><path d="M147.7 94v-8h8v8h-8z"/><path d="M147.7 80v-8h8v8h-8z"/><path d="M147.7 66v-8h8v8h-8z"/><path d="M186.6 165.4h-39v-10h39c1.6 0 2.3-.4 2.8-.9s.9-1.2.9-2.8v-34l-10.8-13.3c-1.6-2-1.4-4.9.4-6.7l10.4-10V55.6c0-1.6-.4-2.3-.9-2.8s-1.2-.9-2.8-.9h-39v-10h39c3.7 0 7.3 1.3 9.9 3.8 2.6 2.6 3.9 6.2 3.8 9.9v34.2c0 1.4-.5 2.7-1.5 3.6l-8.6 8.3 9 11.2c.7.9 1.1 2 1.1 3.1v35.7c0 3.7-1.3 7.3-3.8 9.9-2.6 2.5-6.1 3.8-9.9 3.8.1 0 0 0 0 0z"/><path d="M256.2 156.5c0 6-3 8.9-8.9 8.9h-26.4c-5.9 0-8.9-3-8.9-8.9V97.4c0-6 3-8.9 8.9-8.9h26.4c6 0 8.9 3 8.9 8.9v59.1zm-10.5-.3V97.7h-23.2v58.5h23.2z"/><path d="M313.5 156.5c0 6-3 8.9-8.9 8.9h-26.4c-5.9 0-8.9-3-8.9-8.9V97.4c0-6 3-8.9 8.9-8.9h26.4c6 0 8.9 3 8.9 8.9v59.1zm-10.5-.3V97.7h-23.2v58.5H303z"/><path d="M369.8 165.5h-11.5l-21.2-39.2v39.2h-10.5V41.7h10.5v78.6l19.8-31.8h11.3v.3l-22.4 34 24 42.7z"/><path d="M388 71.6h-10.7V58.4H388v13.2zm-.1 93.9h-10.4v-77h10.4v77z" opacity=".8"/><path d="M429.4 165.5h-14.9c-5.9 0-8.9-3-8.9-8.9V97.7h-9.3v-9.3h9.3v-24H416v24h13.4v9.3H416v58.5h13.4v9.3z" opacity=".8"/><path d="m482.1 88.5-18.5 76.3-7.7 29.8h-10.4l7.8-29.8-19-76.3h10.8l13.1 60.6 13.3-60.6h10.6z" opacity=".8"/><path d="M196.5 161.6c-2.5 2.6-6.1 3.8-9.8 3.8H18.3c1.3.6 2.7 1 4.4 1l140.9 4h32c5.3 0 8.7-3.4 8.7-8.7V126l-4-5v30.7c0 3.7-1.2 7.3-3.8 9.9z" opacity=".2"/><path d="M204.3 65.6c0-3.5-1.5-6.1-4-7.6v31.7c0 1.4-.5 2.7-1.5 3.6l-8.6 8.3 5.3 6.6 8.8-8.5V65.6z" opacity=".2"/><path d="M147.6 41.8H171l-12.5-34c-2.3-6.2-9.2-9.4-15.4-7.1L31.3 41.8H147.6z" opacity=".3"/></svg>