<?xml version="1.0" encoding="utf-8"?>
<!-- Generator: Adobe Illustrator 13.0.0, SVG Export Plug-In . SVG Version: 6.00 Build 14948)  -->
<!DOCTYPE svg PUBLIC "-//W3C//DTD SVG 1.1//EN" "http://www.w3.org/Graphics/SVG/1.1/DTD/svg11.dtd">
<svg version="1.1" id="Layer_1" xmlns="http://www.w3.org/2000/svg" xmlns:xlink="http://www.w3.org/1999/xlink" x="0px" y="0px"
	 width="19.5px" height="20.5px" viewBox="2.2 1.2 19.5 20.5" enable-background="new 2.2 1.2 19.5 20.5" xml:space="preserve">
<g>
	<path d="M5,21.7c-1.5,0-2.8-1.2-2.8-2.8l0,0v-9c0-0.2,0.1-0.4,0.2-0.5l0,0C2.6,9.3,2.8,9.3,3,9.3l0,0h18c0.2,0,0.4,0.1,0.5,0.2l0,0
		c0.1,0.1,0.2,0.3,0.2,0.5l0,0v9c0,1.5-1.2,2.8-2.8,2.8l0,0H5L5,21.7z M3.8,19c0,0.7,0.6,1.2,1.2,1.3l0,0h14c0.7,0,1.2-0.6,1.3-1.3
		l0,0v-8.2H3.8V19L3.8,19z M3,10.8V10V10.8L3,10.8z M14.2,6V4.8h-3.8c-0.4,0-0.7-0.3-0.7-0.8l0,0c0-0.4,0.3-0.7,0.7-0.7l0,0h3.8V2
		c0-0.4,0.3-0.8,0.8-0.8l0,0c0.4,0,0.7,0.3,0.7,0.8l0,0v2v2c0,0.4-0.3,0.7-0.7,0.7l0,0C14.6,6.7,14.2,6.4,14.2,6L14.2,6z"/>
</g>
<g>
	<path d="M2.2,21v-4c0-1.5,1.2-2.8,2.8-2.8l0,0h2c0.4,0,0.8,0.3,0.8,0.8l0,0c0,0.4-0.3,0.8-0.8,0.8l0,0l-2,0c-0.7,0-1.2,0.6-1.3,1.3
		l0,0v4c0,0.4-0.3,0.8-0.8,0.8l0,0C2.6,21.7,2.2,21.4,2.2,21L2.2,21z"/>
</g>
<g>
	<path d="M6.2,21v-4c0-0.4,0.3-0.8,0.7-0.8l0,0c0.4,0,0.8,0.3,0.8,0.8l0,0v4c0,0.4-0.3,0.8-0.8,0.8l0,0C6.6,21.7,6.2,21.4,6.2,21
		L6.2,21z"/>
</g>
<g>
	<path d="M20.3,21v-4c0-0.7-0.6-1.2-1.3-1.2l0,0h-0.5c-0.4,0-0.8-0.3-0.8-0.8l0,0c0-0.4,0.3-0.8,0.8-0.8l0,0H19
		c1.5,0,2.7,1.2,2.8,2.8l0,0v4c0,0.4-0.3,0.7-0.8,0.7l0,0C20.6,21.7,20.3,21.4,20.3,21L20.3,21z"/>
</g>
</svg>
