<?xml version="1.0" encoding="utf-8"?>
<!-- Generator: Adobe Illustrator 13.0.0, SVG Export Plug-In . SVG Version: 6.00 Build 14948)  -->
<!DOCTYPE svg PUBLIC "-//W3C//DTD SVG 1.1//EN" "http://www.w3.org/Graphics/SVG/1.1/DTD/svg11.dtd">
<svg version="1.1" id="Layer_1" xmlns="http://www.w3.org/2000/svg" xmlns:xlink="http://www.w3.org/1999/xlink" x="0px" y="0px"
	 width="16px" height="12px" viewBox="4 6 16 12" enable-background="new 4 6 16 12" xml:space="preserve">
<g>
	<path d="M8.3,17.7l-4-4c-0.4-0.4-0.4-1,0-1.4l0,0c0.4-0.4,1-0.4,1.4,0l0,0L9,15.6l9.3-9.3c0.4-0.4,1-0.4,1.4,0l0,0
		c0.4,0.4,0.4,1,0,1.4l0,0l-10,10C9.5,17.9,9.3,18,9,18l0,0C8.7,18,8.5,17.9,8.3,17.7L8.3,17.7z"/>
</g>
</svg>
