<?xml version="1.0" encoding="utf-8"?>
<!-- Generator: Adobe Illustrator 13.0.0, SVG Export Plug-In . SVG Version: 6.00 Build 14948)  -->
<!DOCTYPE svg PUBLIC "-//W3C//DTD SVG 1.1//EN" "http://www.w3.org/Graphics/SVG/1.1/DTD/svg11.dtd">
<svg version="1.1" id="Layer_1" xmlns="http://www.w3.org/2000/svg" xmlns:xlink="http://www.w3.org/1999/xlink" x="0px" y="0px"
	 width="20px" height="20px" viewBox="0 0 20 20" enable-background="new 0 0 20 20" xml:space="preserve">
<path d="M19.5,8.4l-1.9-0.5l-0.7-1.8L18,4.9c0.2-0.3,0.2-0.7,0-0.9l-1.9-1.9c-0.3-0.3-0.7-0.3-0.9,0l-1.3,1.1L12,2.4l-0.5-1.9
	C11.5,0.2,11.2,0,10.9,0H9.1C8.7,0,8.5,0.2,8.4,0.5L7.9,2.4L6.1,3.2L4.9,2c-0.3-0.2-0.7-0.2-1,0L2.1,3.9C1.8,4.2,1.8,4.6,2,4.9
	l1.1,1.3L2.4,8L0.5,8.4C0.2,8.5,0,8.7,0,9.1v1.9c0,0.3,0.2,0.6,0.5,0.7l1.9,0.5l0.7,1.7L2,15.1c-0.2,0.3-0.2,0.7,0,1l1.9,1.9
	c0.3,0.3,0.7,0.3,0.9,0l1.3-1.1l1.7,0.7l0.5,1.9C8.5,19.8,8.7,20,9.1,20h1.9c0.3,0,0.6-0.2,0.7-0.5l0.5-1.9l1.8-0.7
	c0.5,0.4,1.3,1.1,1.3,1.1c0.3,0.2,0.7,0.2,1,0l1.9-1.9c0.3-0.3,0.3-0.7,0-0.9l-1.1-1.3l0.7-1.8l1.9-0.5c0.3-0.1,0.5-0.4,0.5-0.7V9.1
	C20,8.7,19.8,8.5,19.5,8.4z M18.6,10.4l-1.7,0.4c-0.2,0.1-0.4,0.2-0.5,0.4l-1,2.5c-0.1,0.2-0.1,0.5,0.1,0.7l1,1.1l-0.9,0.9
	c-0.4-0.3-0.9-0.8-1.2-1c-0.2-0.1-0.4-0.2-0.7-0.1l-2.5,1c-0.2,0.1-0.4,0.3-0.4,0.5l-0.4,1.7H9.6l-0.4-1.7c-0.1-0.2-0.2-0.4-0.4-0.5
	l-2.4-1c-0.1,0-0.2-0.1-0.3-0.1c-0.2,0-0.3,0.1-0.4,0.2l-1.2,1l-1-1l1-1.1c0.2-0.2,0.2-0.5,0.1-0.7l-1-2.5c-0.1-0.2-0.3-0.3-0.5-0.4
	l-1.7-0.5V9.6l1.7-0.4C3.3,9.2,3.5,9,3.6,8.8l1-2.5c0.1-0.2,0.1-0.5-0.1-0.7l-1-1.2l0.9-1l1.1,1C5.7,4.7,6,4.7,6.3,4.6l2.5-1
	c0.2-0.1,0.3-0.3,0.4-0.5l0.5-1.7h0.7l0.4,1.7c0.1,0.2,0.2,0.4,0.4,0.5l2.5,1c0.2,0.1,0.5,0.1,0.7-0.1l1.1-1l1,1l-1,1.1
	c-0.2,0.2-0.2,0.5-0.1,0.7l1,2.5c0.1,0.2,0.3,0.4,0.5,0.4l1.7,0.4V10.4z M10,6.5c-1.9,0-3.5,1.6-3.5,3.5c0,1.9,1.6,3.5,3.5,3.5
	c1.9,0,3.5-1.6,3.5-3.5C13.5,8.1,11.9,6.5,10,6.5z M10,12.1c-1.2,0-2.1-0.9-2.1-2.1c0-1.2,0.9-2.1,2.1-2.1c1.2,0,2.1,0.9,2.1,2.1
	C12.1,11.2,11.2,12.1,10,12.1z"/>
</svg>
