<?xml version="1.0" encoding="utf-8"?>
<!-- Generator: Adobe Illustrator 13.0.0, SVG Export Plug-In . SVG Version: 6.00 Build 14948)  -->
<!DOCTYPE svg PUBLIC "-//W3C//DTD SVG 1.1//EN" "http://www.w3.org/Graphics/SVG/1.1/DTD/svg11.dtd">
<svg version="1.1" id="Layer_1" xmlns="http://www.w3.org/2000/svg" xmlns:xlink="http://www.w3.org/1999/xlink" x="0px" y="0px"
	 width="17px" height="10px" viewBox="3.5 6.2 17 10" enable-background="new 3.5 6.2 17 10" xml:space="preserve">
<path d="M18,10.4c1-0.8,1.8-1.9,2.4-3.1c0.2-0.4,0-0.8-0.4-1c-0.4-0.2-0.8,0-1,0.4c-1.4,3-4.2,4.4-7,4.4c-2.8,0-5.6-1.5-7-4.4
	c-0.2-0.4-0.6-0.5-1-0.4c-0.4,0.2-0.6,0.6-0.4,1C4.2,8.6,5,9.6,6,10.4l-2.3,3.1c-0.3,0.3-0.2,0.8,0.2,1c0.1,0.1,0.3,0.1,0.5,0.1
	c0.2,0,0.5-0.1,0.6-0.3l2.3-3.1c1.2,0.7,2.6,1.1,4,1.2v2.9c0,0.4,0.3,0.8,0.8,0.8c0.4,0,0.8-0.3,0.8-0.8v-2.9c1.4-0.1,2.8-0.5,4-1.2
	l2.3,3.1c0.2,0.2,0.4,0.3,0.6,0.3c0.2,0,0.3,0,0.5-0.1c0.3-0.2,0.4-0.7,0.2-1L18,10.4z"/>
</svg>
