<?xml version="1.0" encoding="utf-8"?>
<!-- Generator: Adobe Illustrator 13.0.0, SVG Export Plug-In . SVG Version: 6.00 Build 14948)  -->
<!DOCTYPE svg PUBLIC "-//W3C//DTD SVG 1.1//EN" "http://www.w3.org/Graphics/SVG/1.1/DTD/svg11.dtd">
<svg version="1.1" id="Layer_1" xmlns="http://www.w3.org/2000/svg" xmlns:xlink="http://www.w3.org/1999/xlink" x="0px" y="0px"
	 width="12px" height="16px" viewBox="0 0 12 16" enable-background="new 0 0 12 16" xml:space="preserve">
<g>
	<path d="M3.9,16H0.8C0.4,16,0,15.7,0,15.2l0,0c0-0.4,0.4-0.8,0.8-0.8l0,0h2.5L7,1.5H5c-0.4,0-0.8-0.3-0.8-0.8l0,0
		C4.2,0.3,4.5,0,5,0l0,0h3.1h3.1C11.6,0,12,0.3,12,0.8l0,0c0,0.4-0.4,0.8-0.8,0.8l0,0H8.7L5,14.5H7c0.4,0,0.8,0.3,0.8,0.8l0,0
		C7.8,15.7,7.5,16,7,16l0,0H3.9L3.9,16z"/>
</g>
</svg>
