<?xml version="1.0" encoding="utf-8"?>
<!-- Generator: Adobe Illustrator 13.0.0, SVG Export Plug-In . SVG Version: 6.00 Build 14948)  -->
<!DOCTYPE svg PUBLIC "-//W3C//DTD SVG 1.1//EN" "http://www.w3.org/Graphics/SVG/1.1/DTD/svg11.dtd">
<svg version="1.1" id="Layer_1" xmlns="http://www.w3.org/2000/svg" xmlns:xlink="http://www.w3.org/1999/xlink" x="0px" y="0px"
	 width="19.5px" height="15.5px" viewBox="2.3 4.3 19.5 15.5" enable-background="new 2.3 4.3 19.5 15.5" xml:space="preserve">
<path d="M3,5.7C2.6,5.7,2.3,5.4,2.3,5l0,0c0-0.4,0.3-0.8,0.7-0.8l0,0h18c0.4,0,0.8,0.3,0.8,0.8l0,0c0,0.4-0.3,0.7-0.8,0.7l0,0H3
	L3,5.7z"/>
<path d="M3,12.8c-0.4,0-0.7-0.3-0.7-0.7l0,0c0-0.4,0.3-0.8,0.7-0.8l0,0h18c0.4,0,0.8,0.3,0.8,0.8l0,0c0,0.4-0.3,0.7-0.8,0.7l0,0H3
	L3,12.8z"/>
<path d="M3,19.8c-0.4,0-0.7-0.3-0.7-0.8l0,0c0-0.4,0.3-0.8,0.7-0.8l0,0h18c0.4,0,0.8,0.3,0.8,0.8l0,0c0,0.4-0.3,0.8-0.8,0.8l0,0H3
	L3,19.8z"/>
</svg>
