<?xml version="1.0" encoding="utf-8"?>
<!-- Generator: Adobe Illustrator 13.0.0, SVG Export Plug-In . SVG Version: 6.00 Build 14948)  -->
<!DOCTYPE svg PUBLIC "-//W3C//DTD SVG 1.1//EN" "http://www.w3.org/Graphics/SVG/1.1/DTD/svg11.dtd">
<svg version="1.1" id="Layer_1" xmlns="http://www.w3.org/2000/svg" xmlns:xlink="http://www.w3.org/1999/xlink" x="0px" y="0px"
	 width="20px" height="20px" viewBox="0 0 20 20" enable-background="new 0 0 20 20" xml:space="preserve">
<path d="M0.8,20c-0.2,0-0.4-0.1-0.6-0.2l0,0C0.1,19.6,0,19.4,0,19.2l0,0v-4.7c0-0.5,0.2-0.9,0.5-1.3l0,0l10-10l2.9-2.9
	c0.3-0.3,0.8-0.3,1.1,0l0,0l5.2,5.2C19.9,5.5,20,5.7,20,5.9l0,0c0,0.2-0.1,0.4-0.2,0.6l0,0l-2.9,3c0,0,0,0,0,0l0,0l-10,10
	C6.5,19.8,6,20,5.5,20l0,0H0.8L0.8,20z M1.6,14.3c0,0-0.1,0.1-0.1,0.2l0,0v3.9h3.9c0.1,0,0.1,0,0.2-0.1l0,0l9.5-9.5l-4.1-4.1
	L1.6,14.3L1.6,14.3z M16.3,7.8l1.8-1.8l-4.1-4.1l-1.8,1.8L16.3,7.8L16.3,7.8z"/>
</svg>
