<?xml version="1.0" encoding="utf-8"?>
<!-- Generator: Adobe Illustrator 13.0.0, SVG Export Plug-In . SVG Version: 6.00 Build 14948)  -->
<!DOCTYPE svg PUBLIC "-//W3C//DTD SVG 1.1//EN" "http://www.w3.org/Graphics/SVG/1.1/DTD/svg11.dtd">
<svg version="1.1" id="Layer_1" xmlns="http://www.w3.org/2000/svg" xmlns:xlink="http://www.w3.org/1999/xlink" x="0px" y="0px"
	 width="20px" height="20px" viewBox="2 2 20 20" enable-background="new 2 2 20 20" xml:space="preserve">
<g>
	<path d="M11.3,18.4c-0.4-0.4-0.4-1-0.1-1.4l0,0l0,0c0.4-0.4,1-0.4,1.4-0.1l0,0c0.4,0.4,0.4,1,0.1,1.4l0,0l0,0
		c-0.2,0.2-0.5,0.3-0.7,0.3l0,0C11.8,18.7,11.5,18.6,11.3,18.4L11.3,18.4z"/>
</g>
<g>
	<path d="M2,12C2,6.5,6.5,2,12,2l0,0c5.5,0,10,4.5,10,10l0,0c0,5.5-4.5,10-10,10l0,0v-0.7v-0.7c4.8,0,8.6-3.9,8.6-8.6l0,0
		c0-4.8-3.9-8.6-8.6-8.6l0,0c-4.8,0-8.6,3.9-8.6,8.6l0,0c0,4.8,3.9,8.6,8.6,8.6l0,0v0.7V22v0C6.5,22,2,17.5,2,12L2,12z"/>
</g>
<path d="M11.4,14.8c0-2,1-2.1,1.8-2.8l0,0c0.8-0.7,1.3-1.1,1.3-2.3l0,0c0-1.7-1.3-2.5-2.7-2.6l0,0C10.3,7.1,9,7.9,9,9.6l0,0
	c0,0.4-0.3,0.7-0.7,0.7l0,0C8,10.3,7.7,10,7.7,9.6l0,0c0-1.3,0.5-2.3,1.3-2.9l0,0c0.8-0.7,1.8-1,2.8-1l0,0c1,0,2,0.3,2.8,1l0,0
	c0.8,0.7,1.3,1.7,1.3,2.9l0,0c0,1.8-1,2.7-1.8,3.4l0,0c-0.7,0.7-1.3,0.2-1.3,1.8l0,0c0,0.4-0.3,0.7-0.7,0.7l0,0
	C11.7,15.5,11.4,15.2,11.4,14.8L11.4,14.8z"/>
</svg>
