<?xml version="1.0" encoding="utf-8"?>
<!-- Generator: Adobe Illustrator 13.0.0, SVG Export Plug-In . SVG Version: 6.00 Build 14948)  -->
<!DOCTYPE svg PUBLIC "-//W3C//DTD SVG 1.1//EN" "http://www.w3.org/Graphics/SVG/1.1/DTD/svg11.dtd">
<svg version="1.1" id="Layer_1" xmlns="http://www.w3.org/2000/svg" xmlns:xlink="http://www.w3.org/1999/xlink" x="0px" y="0px"
	 width="12px" height="18px" viewBox="0 0 12 18" enable-background="new 0 0 12 18" xml:space="preserve">
<g id="dot">
	<path d="M5.3,13.9c-0.4-0.4-0.4-1-0.1-1.4l0,0l0,0c0.4-0.4,1-0.4,1.4-0.1l0,0c0.4,0.4,0.4,1,0.1,1.4l0,0l0,0
		C6.5,14,6.3,14.1,6,14.1l0,0C5.8,14.1,5.5,14,5.3,13.9L5.3,13.9z"/>
</g>
<g>
	<path d="M1.4,18C0.6,18,0,17.4,0,16.6l0,0V1.4C0,0.6,0.6,0,1.4,0l0,0h9.2C11.4,0,12,0.6,12,1.4l0,0v15.2c0,0.8-0.6,1.4-1.4,1.4l0,0
		L1.4,18L1.4,18z M10.4,16.5V1.5H1.6v14.9L10.4,16.5L10.4,16.5z"/>
</g>
</svg>
