<?xml version="1.0" encoding="utf-8"?>
<!-- Generator: Adobe Illustrator 13.0.0, SVG Export Plug-In . SVG Version: 6.00 Build 14948)  -->
<!DOCTYPE svg PUBLIC "-//W3C//DTD SVG 1.1//EN" "http://www.w3.org/Graphics/SVG/1.1/DTD/svg11.dtd">
<svg version="1.1" id="Layer_1" xmlns="http://www.w3.org/2000/svg" xmlns:xlink="http://www.w3.org/1999/xlink" x="0px" y="0px"
	 width="30px" height="21px" viewBox="0 0 30 21" enable-background="new 0 0 30 21" xml:space="preserve">
<g>
	<path d="M18.9,13.7l-0.3-0.9l0.8-0.3l0.3,0.9L18.9,13.7z M18.4,12.1l-0.3-0.9l0.8-0.3l0.3,0.9L18.4,12.1z M18,10.5l-0.3-0.9
		l0.8-0.2l0.3,0.9L18,10.5z M17.6,9l-0.3-0.9l0.8-0.3l0.3,0.9L17.6,9z M17.2,7.4L17,6.6l0.8-0.3l0.3,0.9L17.2,7.4L17.2,7.4z M16.8,6
		l-0.3-0.9l0.8-0.3l0.3,0.9L16.8,6z M16.4,4.4l-0.3-0.9l0.8-0.3l0.3,0.9L16.4,4.4z"/>
	<path d="M22.6,5.4l-1-3.8c-0.1-0.4-0.4-0.8-0.7-0.9c-0.4-0.2-0.7-0.2-1.1-0.1L1.7,5.8C1.3,5.9,1,6.3,0.8,6.6C0.5,7,0.4,7.5,0.6,8
		l2.8,10.4c0.1,0.4,0.4,0.8,0.7,0.9c0.4,0.2,0.7,0.2,1.1,0.1l18.2-5.3c0.4-0.1,0.7-0.4,0.9-0.8c0.2-0.4,0.2-0.8,0.1-1.2l-1-4
		c0-0.1-0.1-0.3-0.2-0.3l-1.3-0.9l0.7-1.2C22.6,5.7,22.6,5.6,22.6,5.4z M21.5,5.5l-0.8,1.4c-0.2,0.3-0.1,0.6,0.1,0.8l1.5,1.1l1,3.7
		c0.1,0.2,0,0.3,0,0.4S23.2,13,23,13.1L4.8,18.4c-0.2,0.1-0.3,0-0.4,0c-0.1-0.1-0.1-0.1-0.2-0.3L1.4,7.7c0-0.1,0-0.3,0.1-0.5
		C1.7,7,1.8,6.9,2,6.9l18-5.2c0.2-0.1,0.3,0,0.4,0c0.1,0.1,0.1,0.1,0.2,0.3L21.5,5.5L21.5,5.5z"/>
	<path d="M28.5,11.8V7.9c0-0.4-0.1-0.9-0.4-1.1c-0.3-0.3-0.7-0.4-1.1-0.4h-3.2c0,0.1-0.1,0.2-0.1,0.3h-0.1l0.3,0.2l0,0
		c0.3,0.2,0.4,0.4,0.6,0.6h2.4c0.2,0,0.3,0.1,0.4,0.1c0.1,0.1,0.1,0.1,0.1,0.4v3.7h0.1l-1.1,1.1c-0.2,0.2-0.2,0.6-0.1,0.8l1.1,1.5
		v3.9c0,0.2-0.1,0.3-0.1,0.4c0,0.1-0.1,0.1-0.4,0.1H10.8l-3.4,1c0.2,0.1,0.5,0.2,0.7,0.2H27c0.4,0,0.8-0.2,1.1-0.4
		c0.3-0.3,0.4-0.7,0.4-1.1v-4.1c0-0.2-0.1-0.3-0.1-0.4l-1-1.2l1-0.9C28.4,12.1,28.5,12,28.5,11.8z"/>
</g>
</svg>
