<?xml version="1.0" encoding="utf-8"?>
<!-- Generator: Adobe Illustrator 13.0.0, SVG Export Plug-In . SVG Version: 6.00 Build 14948)  -->
<!DOCTYPE svg PUBLIC "-//W3C//DTD SVG 1.1//EN" "http://www.w3.org/Graphics/SVG/1.1/DTD/svg11.dtd">
<svg version="1.1" id="Layer_1" xmlns="http://www.w3.org/2000/svg" xmlns:xlink="http://www.w3.org/1999/xlink" x="0px" y="0px"
	 width="24px" height="16px" viewBox="-0.5 3 24 16" enable-background="new -0.5 3 24 16" xml:space="preserve">
<g>
	<path d="M19.8,12.5l-0.2-0.7l0.7-0.2l0.2,0.7L19.8,12.5z M19.5,11.2l-0.2-0.7l0.7-0.2l0.2,0.7L19.5,11.2z M19.1,9.9l-0.2-0.7
		L19.6,9l0.2,0.7L19.1,9.9z M18.7,8.6l-0.2-0.7l0.8-0.2l0.2,0.7L18.7,8.6z M18.4,7.3l-0.2-0.7l0.8-0.2l0.2,0.7L18.4,7.3L18.4,7.3z
		 M18,6.1l-0.2-0.7l0.7-0.2l0.2,0.7L18,6.1z M17.7,4.8L17.4,4l0.7-0.2l0.2,0.7L17.7,4.8z"/>
	<path d="M23.1,5.6l-0.9-3.2c-0.1-0.3-0.3-0.6-0.6-0.8c-0.3-0.2-0.7-0.2-1-0.1L4.8,5.9C4.4,6,4.1,6.3,3.9,6.6C3.7,7,3.6,7.3,3.8,7.7
		l2.4,8.7c0.1,0.3,0.3,0.6,0.6,0.8c0.3,0.2,0.7,0.2,1,0.1l16-4.4c0.3-0.1,0.7-0.3,0.8-0.6s0.2-0.7,0.1-1L23.8,8
		c0-0.1-0.1-0.2-0.2-0.3L22.5,7l0.6-1C23.1,5.9,23.2,5.7,23.1,5.6z M22.2,5.6l-0.7,1.2c-0.1,0.2,0,0.5,0.1,0.6l1.3,1l0.9,3.1
		c0,0.2,0,0.2,0,0.3c0,0.1-0.1,0.1-0.3,0.1l-16,4.4c-0.2,0-0.2,0-0.3,0c-0.1,0-0.1-0.1-0.1-0.3L4.6,7.5c0-0.1,0-0.2,0.1-0.4
		C4.8,7,4.9,6.9,5,6.8l15.8-4.4c0.2,0,0.2,0,0.3,0c0.1,0,0.1,0.1,0.1,0.3L22.2,5.6L22.2,5.6z"/>
	<path d="M27.7,10.3V7c0-0.4-0.1-0.7-0.4-0.9c-0.2-0.2-0.6-0.4-0.9-0.4h-2.7c0,0.2,0,0.3-0.1,0.5l-0.3,0.4h3c0.2,0,0.2,0.1,0.3,0.1
		c0.1,0.1,0.1,0.1,0.1,0.3v3.1h0.1l-1,0.9c-0.2,0.2-0.2,0.5-0.1,0.6l1,1.3v3.2c0,0.2-0.1,0.2-0.1,0.3c0,0.1-0.1,0.1-0.3,0.1H12.7
		l-3.2,0.9c0.1,0,0.2,0,0.4,0h16.6c0.4,0,0.7-0.1,0.9-0.4c0.2-0.2,0.4-0.6,0.4-0.9v-3.4c0-0.1-0.1-0.2-0.1-0.3l-0.9-1.1l0.9-0.8
		C27.6,10.6,27.7,10.5,27.7,10.3z"/>
</g>
</svg>
