<?xml version="1.0" encoding="utf-8"?>
<!-- Generator: Adobe Illustrator 13.0.0, SVG Export Plug-In . SVG Version: 6.00 Build 14948)  -->
<!DOCTYPE svg PUBLIC "-//W3C//DTD SVG 1.1//EN" "http://www.w3.org/Graphics/SVG/1.1/DTD/svg11.dtd">
<svg version="1.1" id="Layer_1" xmlns="http://www.w3.org/2000/svg" xmlns:xlink="http://www.w3.org/1999/xlink" x="0px" y="0px"
	 width="20px" height="17.8px" viewBox="4.1 3.1 20 17.8" enable-background="new 4.1 3.1 20 17.8" xml:space="preserve">
<path d="M14.8,11.8c1.2-0.9,2-2.3,2-3.9c0-2.7-2.2-4.8-4.8-4.8c-2.7,0-4.8,2.2-4.8,4.8c0,1.6,0.8,3,2,3.9c-2.9,1.2-5,4-5,7.3v1
	c0,0.4,0.3,0.8,0.8,0.8c0.4,0,0.8-0.3,0.8-0.8v-1c0-3.5,2.9-6.4,6.4-6.4c3.5,0,6.4,2.9,6.4,6.4v1c0,0.4,0.3,0.8,0.8,0.8
	s0.8-0.3,0.8-0.8v-1C19.9,15.8,17.8,12.9,14.8,11.8z M12,4.6c1.8,0,3.3,1.5,3.3,3.3c0,1.8-1.5,3.3-3.3,3.3c-1.8,0-3.3-1.5-3.3-3.3
	C8.7,6.1,10.1,4.6,12,4.6z"/>
<path d="M24.1,17.2c0-2.4-1.4-4.5-3.5-5.4c0.8-0.7,1.2-1.7,1.2-2.8c0-2.1-1.7-3.7-3.7-3.7c-0.1,0-0.2,0-0.3,0c0.2,0.5,0.4,1,0.5,1.5
	c1.2,0.1,2.1,1,2.1,2.2c0,1.2-1,2.2-2.2,2.2c-0.2,0-0.4,0-0.6-0.1c0,0.1-0.1,0.2-0.1,0.2c0.6,0.4,1.2,0.9,1.7,1.5
	c2,0.4,3.5,2.2,3.5,4.4V18c0,0.4,0.3,0.8,0.8,0.8s0.8-0.3,0.8-0.8L24.1,17.2z"/>
</svg>
