<svg xmlns="http://www.w3.org/2000/svg" xml:space="preserve" viewBox="0 0 891.8 171.8"><path fill="#FFF" d="M185.2 0c1.9 0 3.6 3.9 3.6 8.8V163c0 4.9-1.6 8.8-3.6 8.8-1.9 0-3.6-3.9-3.6-8.8V8.8c.1-4.9 1.7-8.8 3.6-8.8zM268.7 82h-25.6c-8.8 0-15.2-1.8-19.5-5.2-4.2-3.5-6.4-8.9-6.4-16.2V27.9c0-7.3 2.1-12.7 6.4-16.3 4.2-3.5 10.7-5.3 19.5-5.3h25.6c1.4 0 2.3.3 2.9.9.6.6.9 1.6.9 2.9v12.7c0 1.4-.3 2.3-.9 2.9s-1.6.9-2.9.9h-21.1c-2.2 0-3.8.4-4.8 1.3-1.1.9-1.6 2.2-1.6 3.9v25.1c0 1.8.5 3 1.6 3.8 1.1.8 2.6 1.2 4.8 1.2h21.1c1.4 0 2.3.3 2.9.9.6.6.9 1.6.9 2.9v12.5c0 1.4-.3 2.3-.9 2.9s-1.6.9-2.9.9zm79.2-55.7v35.9c0 3.2-.5 6.1-1.4 8.8-.9 2.6-2.6 4.9-5 6.7-2.4 1.9-5.8 3.3-10 4.4-4.2 1.1-9.6 1.6-16.1 1.6-6.5 0-11.9-.5-16.2-1.6s-7.6-2.5-10-4.4c-2.4-1.8-4.1-4.1-5.1-6.7-.9-2.6-1.4-5.5-1.4-8.8V26.3c0-3.2.5-6.1 1.4-8.8.9-2.6 2.6-4.9 5.1-6.8 2.4-1.9 5.8-3.4 10-4.4 4.3-1.1 9.7-1.6 16.2-1.6s11.9.5 16.1 1.6c4.2 1.1 7.5 2.5 10 4.4 2.4 1.9 4.1 4.1 5 6.8 1 2.7 1.4 5.6 1.4 8.8zm-41.4 3.8v28.3c0 1.4.5 2.6 1.6 3.5 1.1.9 3.5 1.4 7.2 1.4 3.8 0 6.2-.5 7.2-1.4 1.1-.9 1.6-2.1 1.6-3.5V30.1c0-1.4-.5-2.5-1.6-3.4-1.1-.9-3.5-1.4-7.2-1.4-3.8 0-6.2.5-7.2 1.4-1 .9-1.6 2.1-1.6 3.4zM380.7 82H365c-1.4 0-2.3-.3-2.9-.9s-.9-1.5-.9-2.9v-68c0-1.4.3-2.3.9-2.9.6-.6 1.5-.9 2.9-.9h17c1.1 0 2.1.2 2.8.7s1.4 1.3 2.1 2.4l9.5 17.1c.4.6.6 1.1.9 1.4.2.3.6.4 1 .4h.9c.4 0 .8-.1 1-.4.2-.3.5-.7.9-1.4l9.4-17.1c.6-1.1 1.3-1.9 2.1-2.4.7-.5 1.6-.7 2.8-.7h17c1.4 0 2.3.3 2.9.9.6.6.9 1.6.9 2.9v68.1c0 1.4-.3 2.3-.9 2.9-.6.6-1.6.9-2.9.9H416c-1.4 0-2.3-.3-2.9-.9s-.9-1.5-.9-2.9v-37L406 52.7c-.6 1.2-1.4 2.1-2.3 2.6-.9.5-1.9.8-3.3.8h-4.2c-1.4 0-2.4-.3-3.3-.8-.9-.5-1.6-1.4-2.3-2.6l-6.2-11.5v37c0 1.4-.3 2.3-.9 2.9s-1.4.9-2.8.9zm89.2 0h-15.7c-1.4 0-2.3-.3-2.9-.9s-.9-1.5-.9-2.9v-68c0-1.4.3-2.3.9-2.9.6-.6 1.5-.9 2.9-.9h17c1.1 0 2.1.2 2.8.7.7.5 1.4 1.3 2.1 2.4l9.5 17.1c.4.6.6 1.1.9 1.4.2.3.6.4 1 .4h.9c.4 0 .8-.1 1-.4.2-.3.5-.7.9-1.4l9.4-17.1c.6-1.1 1.3-1.9 2.1-2.4s1.6-.7 2.8-.7h17c1.4 0 2.3.3 2.9.9.6.6.9 1.6.9 2.9v68.1c0 1.4-.3 2.3-.9 2.9s-1.6.9-2.9.9h-16.2c-1.4 0-2.3-.3-2.9-.9s-.9-1.5-.9-2.9v-37l-6.2 11.5c-.6 1.2-1.4 2.1-2.2 2.6-.9.5-2 .8-3.3.8h-4.2c-1.4 0-2.4-.3-3.3-.8-.9-.5-1.6-1.4-2.2-2.6L474 41.3v37c0 1.4-.3 2.3-.9 2.9-.9.5-1.8.8-3.2.8zm134.2-71.8v52c0 3.2-.5 6.1-1.4 8.8-.9 2.6-2.6 4.9-5.1 6.7-2.4 1.9-5.7 3.3-10 4.4-4.2 1.1-9.5 1.6-16.1 1.6-6.5 0-11.9-.5-16.1-1.6-4.2-1.1-7.5-2.5-9.9-4.4-2.4-1.8-4.1-4.1-5.1-6.7-.9-2.6-1.4-5.5-1.4-8.8v-52c0-1.4.3-2.3.9-2.9.6-.6 1.5-.9 2.9-.9h16.5c1.4 0 2.3.3 2.9.9.6.6.9 1.6.9 2.9v47.9c0 1.4.5 2.6 1.6 3.5 1.1.9 3.4 1.4 7.1 1.4 3.7 0 6.1-.5 7.1-1.4 1.1-.9 1.6-2.1 1.6-3.5V10.2c0-1.4.3-2.3.9-2.9.6-.6 1.5-.9 2.9-.9h16c1.4 0 2.3.3 2.9.9.6.6.9 1.5.9 2.9zM637.7 82h-15.8c-1.4 0-2.3-.3-2.9-.9s-.9-1.5-.9-2.9v-68c0-1.4.3-2.3.9-2.9.6-.6 1.5-.9 2.9-.9h11c1.4 0 2.5.2 3.4.6.9.4 1.9 1.2 2.8 2.2l20.4 23.3V10.2c0-1.4.3-2.3.9-2.9.6-.6 1.5-.9 2.9-.9h15.8c1.4 0 2.3.3 2.9.9.6.6.9 1.6.9 2.9v68.1c0 1.4-.3 2.3-.9 2.9s-1.6.9-2.9.9h-15.8c-1.4 0-2.3-.3-2.9-.9-.6-.6-.9-1.5-.9-2.9v-13l-18-21.7v34.7c0 1.4-.3 2.3-.9 2.9s-1.7.8-2.9.8zM744 82h-44.7c-1.4 0-2.3-.3-2.9-.9s-.9-1.5-.9-2.9V65.7c0-1.4.3-2.3.9-2.9.6-.6 1.5-.9 2.9-.9h10.4V26.6h-10.4c-1.4 0-2.3-.3-2.9-.9-.6-.6-.9-1.5-.9-2.9V10.2c0-1.4.3-2.3.9-2.9.6-.6 1.5-.9 2.9-.9H744c1.4 0 2.3.3 2.9.9.6.6.9 1.6.9 2.9v12.7c0 1.4-.3 2.3-.9 2.9-.6.6-1.6.9-2.9.9h-10.2V62H744c1.4 0 2.3.3 2.9.9.6.6.9 1.6.9 2.9v12.5c0 1.4-.3 2.3-.9 2.9s-1.5.8-2.9.8zm52.5 0h-17c-1.4 0-2.3-.3-2.9-.9-.6-.6-.9-1.5-.9-2.9V26.6h-15.4c-1.4 0-2.3-.3-2.9-.9-.6-.6-.9-1.5-.9-2.9V10.2c0-1.4.3-2.3.9-2.9.6-.6 1.5-.9 2.9-.9h55.5c1.4 0 2.3.3 2.9.9.6.6.9 1.6.9 2.9v12.7c0 1.4-.3 2.3-.9 2.9-.6.6-1.6.9-2.9.9h-15.4v51.6c0 1.4-.3 2.3-.9 2.9-.7.5-1.6.8-3 .8zm71.5 0h-17c-1.4 0-2.3-.3-2.9-.9s-.9-1.5-.9-2.9V64.8l-16.1-21.5c-1.6-2.2-2.6-4.1-3.2-5.7-.5-1.6-.8-4-.8-7.2V10.2c0-1.4.3-2.3.9-2.9.6-.6 1.5-.9 2.9-.9h16.2c1.4 0 2.3.3 2.9.9.6.6.9 1.6.9 2.9v17.3c0 .7.1 1.4.1 2.2.1.8.4 1.5.8 2.2l4.8 7.5c.4.6.7 1.1 1.1 1.4.4.3.8.4 1.4.4h1.1c.6 0 1.1-.1 1.4-.4.4-.3.8-.7 1.1-1.4l4.8-7.5c.5-.7.8-1.4.8-2.2.1-.8.1-1.5.1-2.2V10.2c0-1.4.3-2.3.9-2.9.6-.6 1.5-.9 2.9-.9H888c1.4 0 2.3.3 2.9.9.6.6.9 1.6.9 2.9v20.2c0 3.2-.3 5.7-.8 7.2-.6 1.6-1.6 3.5-3.2 5.7l-16 21.7v13.4c0 1.4-.3 2.3-.9 2.9-.6.4-1.5.7-2.9.7zM254.1 167.1h-17c-1.4 0-2.3-.3-2.9-.9-.6-.6-.9-1.5-.9-2.9v-51.6h-15.4c-1.4 0-2.3-.3-2.9-.9-.6-.6-.9-1.5-.9-2.9V95.3c0-1.4.3-2.3.9-2.9.6-.6 1.5-.9 2.9-.9h55.5c1.4 0 2.3.3 2.9.9s.9 1.6.9 2.9V108c0 1.4-.3 2.3-.9 2.9s-1.6.9-2.9.9H258v51.6c0 1.4-.3 2.3-.9 2.9-.7.5-1.7.8-3 .8zm68.9 0h-17c-1.4 0-2.3-.3-2.9-.9-.6-.6-.9-1.5-.9-2.9v-51.6h-15.4c-1.4 0-2.3-.3-2.9-.9s-.9-1.5-.9-2.9V95.3c0-1.4.3-2.3.9-2.9s1.5-.9 2.9-.9h55.5c1.4 0 2.3.3 2.9.9.6.6.9 1.6.9 2.9V108c0 1.4-.3 2.3-.9 2.9-.6.6-1.6.9-2.9.9h-15.4v51.6c0 1.4-.3 2.3-.9 2.9-.7.5-1.6.8-3 .8z"/><path fill="#FFEB00" d="M73.6 38.9c-10.6 0-19.3-8.7-19.3-19.3 0-.4 0-.8.1-1.3C55 8.2 63.5.3 73.6.3 84.2.3 92.9 9 92.9 19.6c0 2.1-.4 4.1-1 6.1-2.7 7.9-10 13.2-18.3 13.2m0-34.2c-7.8 0-14.4 6.1-15 14 0 .4-.1.6-.1 1 0 8.2 6.7 15 15 15 6.4 0 12.2-4.1 14.2-10.2.5-1.5.8-3.1.8-4.8.1-8.2-6.6-15-14.9-15"/><path fill="#FFEB00" d="m151.6 139.6-40-35.6 9.9-9.9c.3-.3.5-.6.6-1 2.5-10.2 2.4-21-.3-31.1-2.8-10.4-8.3-20-16-27.7-4.5-4.4-9.5-8.2-15.1-11.1-.1-.1-.2-.1-.3-.1-1.1-.4-2.4.2-2.7 1.4-2 6.1-7.8 10.2-14.2 10.2-8.2 0-15-6.7-15-15 0-.4.1-.6.1-1v-.4c-.1-1.2-1.1-2.1-2.3-1.9-14.4 1.3-27.9 7.7-38.2 17.9C-6 58.5-6 97.8 18.1 122c11.7 11.7 27.3 18.1 43.9 18.1 5.1 0 10.1-.6 14.8-1.8.4-.1.7-.3 1-.6l12.4-12.4 35.6 40c3.5 3.9 8.4 6.1 13.7 6.1 4.9 0 9.5-1.9 12.8-5.3 3.6-3.6 5.5-8.4 5.4-13.4-.2-5.1-2.3-9.7-6.1-13.1zm-100.5-4.8c-11.2-2.2-21.6-7.6-29.8-15.9-22.5-22.5-22.5-59.1 0-81.6 8.9-9 20.7-14.8 33.1-16.4.6 10 9 18 19.1 18 7.4 0 14.1-4.2 17.3-10.8 4.4 2.5 8.4 5.6 12 9.2 8.3 8.3 13.7 18.5 15.9 29.5l-66 66c-.2.2-.9 1.1-1.6 2zm24.3-.5c-4.4 1.1-8.8 1.6-13.4 1.6-2 0-4-.1-6-.3l63.4-63.4c.6 6.4.2 12.9-1.3 19.4l-42.7 42.7zm33.2-27.2 9.6 8.5-16.3 16.3-8.5-9.6 15.2-15.2zm40.8 56c-2.6 2.6-6.2 4.1-9.9 4.1-4 0-7.8-1.7-10.5-4.7l-24.3-27.4 16.7-16.7 27.4 24.3c2.9 2.6 4.6 6.2 4.7 10.1.1 3.9-1.3 7.5-4.1 10.3z"/></svg>