<?xml version="1.0" encoding="utf-8"?>
<!-- Generator: Adobe Illustrator 13.0.0, SVG Export Plug-In . SVG Version: 6.00 Build 14948)  -->
<!DOCTYPE svg PUBLIC "-//W3C//DTD SVG 1.1//EN" "http://www.w3.org/Graphics/SVG/1.1/DTD/svg11.dtd">
<svg version="1.1" id="Layer_1" xmlns="http://www.w3.org/2000/svg" xmlns:xlink="http://www.w3.org/1999/xlink" x="0px" y="0px"
	 width="20px" height="26px" viewBox="0 0 20 26" enable-background="new 0 0 20 26" xml:space="preserve">
<path fill="var(--c-background, #4AA1FF)" d="M9.41,2.79c-4.37,0-7.93,3.78-7.93,8.58c0,2.58,1.96,5.54,3.74,7.94c1.87,2.49,3.74,4.25,3.74,4.25
	l0.36,0.46l0.36-0.46c0,0,1.87-1.85,3.65-4.25c1.87-2.49,3.65-5.45,3.74-7.94l0,0C17.34,6.76,13.78,2.79,9.41,2.79z"/>
<path fill="var(--c-text, #000673)" d="M9.41,1.5c-4.99,0-8.91,4.25-8.91,9.6c0,2.95,2.14,6.19,4.28,8.95c2.05,2.86,4.19,4.89,4.19,4.89L9.5,25.5
	l0.54-0.55c0,0,2.05-2.22,4.19-4.8c2.05-2.86,4.19-6.09,4.28-8.95l0,0C18.32,5.84,14.4,1.5,9.41,1.5z M12.89,19.04
	c-1.43,1.85-2.76,3.23-3.48,4.15c-0.71-0.65-2.05-2.31-3.48-4.15c-1.96-2.58-3.92-5.91-3.83-7.94c0-4.34,3.3-8.03,7.4-8.03
	c4.1,0,7.31,3.51,7.4,8.03C16.81,13.13,14.94,16.55,12.89,19.04z M9.41,9.25c-0.98,0-1.78,0.83-1.78,1.94c0,1.11,0.8,1.94,1.78,1.94
	s1.78-0.83,1.78-1.94C11.19,10.08,10.39,9.25,9.41,9.25z"/>
</svg>
